<svg width="24" height="24" viewBox="0 0 24 24" fill="none" xmlns="http://www.w3.org/2000/svg">
<rect width="24" height="24" fill="white" fill-opacity="0.1"/>
<path d="M19.0378 12.7639C19.05 11.8441 19.3003 10.9422 19.7654 10.1421C20.2305 9.34211 20.8953 8.66993 21.698 8.18815C21.1881 7.47716 20.5154 6.89204 19.7333 6.47926C18.9512 6.06649 18.0813 5.83744 17.1926 5.81029C15.297 5.61604 13.4593 6.91766 12.4934 6.91766C11.5087 6.91766 10.0214 5.82958 8.41991 5.86174C7.384 5.89442 6.37442 6.1885 5.48955 6.71534C4.60467 7.24219 3.87467 7.98382 3.37068 8.86798C1.18755 12.5581 2.81597 17.9813 4.90727 20.9641C5.95359 22.4247 7.17644 24.0563 8.77653 23.9984C10.3423 23.935 10.9271 23.0237 12.8171 23.0237C14.6896 23.0237 15.2382 23.9984 16.8708 23.9616C18.551 23.935 19.6095 22.4945 20.6192 21.0201C21.3709 19.9794 21.9494 18.8291 22.3332 17.612C21.3571 17.209 20.5241 16.5343 19.9381 15.6722C19.3521 14.8101 19.039 13.7986 19.0378 12.7639Z" fill="black"/>
<path d="M15.9529 3.84683C16.869 2.77321 17.3204 1.39325 17.2111 0C15.8115 0.143508 14.5187 0.796534 13.5902 1.82896C13.1363 2.33333 12.7886 2.9201 12.567 3.55573C12.3455 4.19136 12.2545 4.86338 12.2991 5.53337C12.9992 5.54041 13.6917 5.39228 14.3246 5.10014C14.9575 4.808 15.5143 4.37947 15.9529 3.84683Z" fill="black"/>
</svg>
