<svg width="44" height="44" viewBox="0 0 44 44" fill="none" xmlns="http://www.w3.org/2000/svg">
<g clip-path="url(#clip0_3:2)">
<path d="M22 43.5714C33.9136 43.5714 43.5714 33.9136 43.5714 22C43.5714 10.0864 33.9136 0.428604 22 0.428604C10.0864 0.428604 0.428604 10.0864 0.428604 22C0.428604 33.9136 10.0864 43.5714 22 43.5714Z" stroke="white"/>
<path fill-rule="evenodd" clip-rule="evenodd" d="M14.6974 28.712L14.6013 28.7066C13.7687 28.6113 13.8007 27.2768 14.6974 27.2768L14.8089 27.2726C15.5816 27.2139 16.1908 26.5502 16.1908 25.7401V20.4815C16.1868 18.0379 17.6251 15.8605 19.7855 14.9451L19.8625 14.9138L19.8744 14.8352C20.0446 13.8342 20.8663 13.0638 21.8732 13.0038L22 13C23.0641 13 23.9483 13.7925 24.1248 14.8061L24.1397 14.9146L24.2145 14.9451C26.3149 15.8351 27.7328 17.9178 27.8062 20.2774L27.8092 20.4803V25.7401C27.8092 26.5888 28.4778 27.2768 29.3026 27.2768L29.3987 27.2821C30.2004 27.3739 30.2004 28.6148 29.3987 28.7066L29.3026 28.712H14.6974ZM22.7631 15.2204C22.7631 14.7868 22.4215 14.4352 22 14.4352C21.5785 14.4352 21.2369 14.7868 21.2358 15.2613L21.234 15.3256L21.2358 15.39C21.2541 15.722 21.0484 16.0235 20.7387 16.1185C18.8652 16.6932 17.5823 18.4675 17.5856 20.4803V25.7401C17.5856 26.253 17.4593 26.7356 17.237 27.1567L17.1693 27.2768H26.8299L26.763 27.1567C26.5629 26.7777 26.4406 26.3489 26.4182 25.8931L26.4144 25.7401V20.4791C26.4177 18.4675 25.1348 16.6932 23.2613 16.1185C22.9516 16.0235 22.7459 15.722 22.7642 15.39C22.7648 15.3793 22.7653 15.3685 22.7656 15.3572L22.7631 15.2204ZM23.4606 29.4973C23.4606 30.3273 22.8067 31.0001 22 31.0001C21.1934 31.0001 20.5395 30.3273 20.5395 29.4973H23.4606Z" fill="white"/>
</g>
<defs>
<clipPath id="clip0_3:2">
<rect width="44" height="44" fill="white"/>
</clipPath>
</defs>
</svg>
