<svg width="24" height="24" viewBox="0 0 24 24" fill="none" xmlns="http://www.w3.org/2000/svg">
<rect width="24" height="24" fill="white" fill-opacity="0.1"/>
<path fill-rule="evenodd" clip-rule="evenodd" d="M23.52 12.2729C23.52 11.422 23.4436 10.6038 23.3018 9.81836H12V14.4602H18.4582C18.18 15.9602 17.3345 17.2311 16.0636 18.082V21.0929H19.9418C22.2109 19.0038 23.52 15.9275 23.52 12.2729Z" fill="#4285F4"/>
<path fill-rule="evenodd" clip-rule="evenodd" d="M11.999 24C15.239 24 17.9554 22.9255 19.9408 21.0928L16.0627 18.0818C14.9881 18.8018 13.6136 19.2273 11.999 19.2273C8.87357 19.2273 6.22812 17.1164 5.28448 14.28H1.27539V17.3891C3.24994 21.3109 7.30812 24 11.999 24Z" fill="#34A853"/>
<path fill-rule="evenodd" clip-rule="evenodd" d="M5.28545 14.2797C5.04545 13.5597 4.90909 12.7906 4.90909 11.9997C4.90909 11.2088 5.04545 10.4397 5.28545 9.71969V6.6106H1.27636C0.463636 8.2306 0 10.0633 0 11.9997C0 13.9361 0.463636 15.7688 1.27636 17.3888L5.28545 14.2797Z" fill="#FBBC05"/>
<path fill-rule="evenodd" clip-rule="evenodd" d="M11.999 4.77273C13.7608 4.77273 15.3427 5.37818 16.5863 6.56727L20.0281 3.12545C17.9499 1.18909 15.2336 0 11.999 0C7.30812 0 3.24994 2.68909 1.27539 6.61091L5.28448 9.72C6.22812 6.88364 8.87357 4.77273 11.999 4.77273Z" fill="#EA4335"/>
</svg>
