<svg width="44" height="44" viewBox="0 0 44 44" fill="none" xmlns="http://www.w3.org/2000/svg">
  <path fill-rule="evenodd" clip-rule="evenodd"
    d="M25.3908 14.004C26.6138 14.0057 27.7862 14.4925 28.6504 15.3577C29.5146 16.2228 30 17.3956 30 18.6183C29.97 19.8652 29.5383 21.0691 28.7692 22.0512L22 30L15.7231 22.5803C14.6885 21.5113 14.0764 20.1038 14 18.6183C13.998 17.6898 14.2765 16.7824 14.7991 16.0149C15.3217 15.2474 16.064 14.6557 16.9288 14.3172C17.7935 13.9787 18.7404 13.9092 19.6453 14.1179C20.3011 14.2692 20.9126 14.5614 21.4391 14.9707C21.6391 15.1263 21.8268 15.2987 22 15.4867C22.172 15.2997 22.3589 15.1278 22.5583 14.9725C22.8558 14.741 23.1813 14.5463 23.5281 14.3936C24.1073 14.1384 24.7332 14.0058 25.3662 14.004H25.3908ZM16.9668 21.5025L22.0011 27.4644L27.4797 21.022C28.023 20.3335 28.3312 19.489 28.359 18.6125C28.3558 17.8275 28.0429 17.0752 27.488 16.5194C26.9317 15.9622 26.1775 15.6478 25.39 15.6448H25.367C24.9606 15.6463 24.5589 15.732 24.1873 15.8964C23.8155 16.0609 23.4818 16.3007 23.2072 16.6005L23.2058 16.602L22.002 17.9037L20.7803 16.6003C20.506 16.3003 20.1724 16.0604 19.8006 15.8959C19.429 15.7315 19.0273 15.646 18.621 15.6448C17.8316 15.6449 17.0745 15.9581 16.5159 16.5156C15.9603 17.07 15.6461 17.821 15.6411 18.6054C15.7155 19.694 16.182 20.7189 16.9545 21.4902L16.9668 21.5025Z"
    fill="white" />
  <circle cx="22" cy="22" r="21.5" stroke="white" />
</svg>