<svg width="44" height="44" viewBox="0 0 44 44" fill="none" xmlns="http://www.w3.org/2000/svg">
<g clip-path="url(#clip0_3:8)">
<path d="M22 43.5714C33.9135 43.5714 43.5714 33.9136 43.5714 22C43.5714 10.0864 33.9135 0.428604 22 0.428604C10.0864 0.428604 0.428589 10.0864 0.428589 22C0.428589 33.9136 10.0864 43.5714 22 43.5714Z" stroke="white"/>
<g clip-path="url(#clip1_3:8)">
<path fill-rule="evenodd" clip-rule="evenodd" d="M17.2736 14.1953C17.5439 13.9349 17.9823 13.9349 18.2526 14.1953L22.154 17.9521L26.3752 14.1781C26.6554 13.9276 27.0934 13.9432 27.3536 14.2131C27.6137 14.4829 27.5975 14.9047 27.3173 15.1552L24.1355 18H29.6154C30.3801 18 31 18.597 31 19.3333V28.6667C31 29.403 30.3801 30 29.6154 30H14.3846C13.6199 30 13 29.403 13 28.6667V19.3333C13 18.597 13.6199 18 14.3846 18H20.2456L17.2736 15.1381C17.0032 14.8777 17.0032 14.4556 17.2736 14.1953ZM21.917 19.3333H14.3846V28.6667H29.6154V19.3333H21.917Z" fill="white"/>
</g>
</g>
<defs>
<clipPath id="clip0_3:8">
<rect width="44" height="44" fill="white"/>
</clipPath>
<clipPath id="clip1_3:8">
<rect width="18" height="16" fill="white" transform="translate(13 14)"/>
</clipPath>
</defs>
</svg>
