<svg width="24" height="20" viewBox="0 0 24 20" fill="none" xmlns="http://www.w3.org/2000/svg">
<path d="M21.5343 4.98434C21.5502 5.20361 21.5502 5.42163 21.5502 5.63965C21.5502 12.3117 16.6004 20 7.55465 20C4.76776 20 2.17871 19.1718 0 17.7334C0.395685 17.7797 0.776715 17.796 1.18828 17.796C3.40239 17.8015 5.55381 17.0419 7.29575 15.6396C6.26919 15.6206 5.27406 15.2731 4.4493 14.6457C3.62455 14.0183 3.01134 13.1423 2.6953 12.1401C2.99939 12.1864 3.3047 12.2178 3.62467 12.2178C4.06554 12.2178 4.50885 12.1551 4.92041 12.0461C3.80634 11.8153 2.80457 11.1958 2.08543 10.2928C1.36629 9.38983 0.974182 8.25918 0.975779 7.0931V7.03045C1.63159 7.40509 2.39243 7.6394 3.19845 7.67072C2.52321 7.21036 1.96953 6.58567 1.58682 5.85239C1.2041 5.11911 1.00425 4.30003 1.00509 3.46824C1.00509 2.53101 1.24812 1.67147 1.67433 0.922191C2.91041 2.48217 4.45207 3.75838 6.19947 4.66816C7.94688 5.57794 9.86106 6.10101 11.818 6.20349C11.7423 5.82759 11.6959 5.43792 11.6959 5.04699C11.6956 4.38412 11.8226 3.72768 12.0697 3.1152C12.3168 2.50272 12.6791 1.94622 13.136 1.47749C13.5928 1.00877 14.1353 0.637027 14.7322 0.383509C15.3292 0.129991 15.969 -0.000328755 16.6151 6.22808e-07C18.0318 6.22808e-07 19.3104 0.608947 20.2092 1.59379C21.3105 1.37529 22.3666 0.962815 23.3308 0.37464C22.9637 1.54093 22.1947 2.52989 21.1679 3.15625C22.1447 3.04195 23.0992 2.77842 24 2.37439C23.3272 3.38065 22.4936 4.26306 21.5343 4.98434Z" fill="#2AA3EF"/>
</svg>
