<svg width="18" height="18" viewBox="0 0 18 18" fill="none" xmlns="http://www.w3.org/2000/svg">
<path fill-rule="evenodd" clip-rule="evenodd" d="M5.5 5.5C5.5 3.567 7.067 2 9 2C10.933 2 12.5 3.567 12.5 5.5C12.5 7.433 10.933 9 9 9C7.067 9 5.5 7.433 5.5 5.5ZM12.5274 9.72006C13.7331 8.71115 14.5 7.19513 14.5 5.5C14.5 2.46243 12.0376 0 9 0C5.96243 0 3.5 2.46243 3.5 5.5C3.5 7.19513 4.26687 8.71115 5.4726 9.72006C4.41347 10.1713 3.45048 10.8216 2.63604 11.636C1.80031 12.4718 1.13738 13.4639 0.685084 14.5559C0.232792 15.6478 0 16.8181 0 18H2C2 17.0807 2.18106 16.1705 2.53284 15.3212C2.88463 14.4719 3.40024 13.7003 4.05025 13.0503C4.70026 12.4002 5.47194 11.8846 6.32122 11.5328C7.1705 11.1811 8.08075 11 9 11C9.91925 11 10.8295 11.1811 11.6788 11.5328C12.5281 11.8846 13.2997 12.4002 13.9497 13.0503C14.5998 13.7003 15.1154 14.4719 15.4672 15.3212C15.8189 16.1705 16 17.0807 16 18H18C18 16.8181 17.7672 15.6478 17.3149 14.5558C16.8626 13.4639 16.1997 12.4718 15.364 11.636C14.5495 10.8216 13.5865 10.1713 12.5274 9.72006Z" fill="#5A5A5A"/>
</svg>
