<?xml version="1.0" encoding="utf-8"?>
<!-- Generator: Adobe Illustrator 25.2.2, SVG Export Plug-In . SVG Version: 6.00 Build 0)  -->
<svg version="1.1" id="Layer_1" xmlns="http://www.w3.org/2000/svg" xmlns:xlink="http://www.w3.org/1999/xlink" x="0px" y="0px"
	 viewBox="0 0 148 70" style="enable-background:new 0 0 148 70;" xml:space="preserve">
<style type="text/css">
	.st0{fill:#FFFFFF;}
</style>
<path id="Olympic_rings_1_" class="st0" d="M124.6,0.9c-12.3,0-22.3,9.5-23.3,21.5c-0.7-0.1-1.3-0.1-2-0.1c-0.7,0-1.4,0-2,0.1
	c-0.9-12-11-21.5-23.3-21.5c-12.3,0-22.3,9.5-23.3,21.5c-0.7-0.1-1.3-0.1-2-0.1s-1.4,0-2,0.1c-0.9-12-11-21.5-23.3-21.5
	C10.5,0.9,0,11.4,0,24.3c0,12.9,10.5,23.4,23.4,23.4c0.7,0,1.4,0,2-0.1c0.9,12,11,21.5,23.3,21.5C61,69.1,71,59.6,72,47.6
	c0.7,0.1,1.3,0.1,2,0.1c0.7,0,1.4,0,2-0.1c0.9,12,11,21.5,23.3,21.5c12.3,0,22.3-9.5,23.3-21.5c0.7,0.1,1.3,0.1,2,0.1
	c12.9,0,23.4-10.5,23.4-23.4C148,11.4,137.5,0.9,124.6,0.9z M3.9,24.3c0-10.8,8.7-19.5,19.5-19.5c10.4,0,18.8,8.1,19.4,18.3
	c-9.4,2.4-16.5,10.6-17.4,20.6c-0.7,0.1-1.3,0.1-2,0.1C12.6,43.8,3.9,35,3.9,24.3z M42.6,27.2c-1.1,7.3-6.3,13.3-13.2,15.6
	C30.5,35.5,35.7,29.5,42.6,27.2z M48.7,65.2c-10.4,0-18.8-8.1-19.4-18.3c9.4-2.4,16.5-10.6,17.4-20.6c0.7-0.1,1.3-0.1,2-0.1
	c0.7,0,1.4,0,2,0.1c0.9,10,8,18.1,17.4,20.6C67.5,57.1,59,65.2,48.7,65.2z M54.7,27.2c6.9,2.3,12.1,8.3,13.2,15.6
	C61,40.5,55.8,34.5,54.7,27.2z M72,43.7c-0.9-10-8-18.1-17.4-20.6C55.2,12.9,63.6,4.8,74,4.8c10.4,0,18.8,8.1,19.4,18.3
	C84,25.5,76.9,33.7,76,43.7c-0.7,0.1-1.3,0.1-2,0.1C73.3,43.8,72.6,43.7,72,43.7z M93.3,27.2c-1.1,7.3-6.3,13.3-13.2,15.6
	C81.2,35.5,86.4,29.5,93.3,27.2z M99.3,65.2c-10.4,0-18.8-8.1-19.4-18.3c9.4-2.4,16.5-10.6,17.4-20.6c0.7-0.1,1.3-0.1,2-0.1
	c0.7,0,1.4,0,2,0.1c0.9,10,8,18.1,17.4,20.6C118.1,57.1,109.7,65.2,99.3,65.2z M105.4,27.2c6.9,2.3,12.1,8.3,13.2,15.6
	C111.7,40.5,106.5,34.5,105.4,27.2z M124.6,43.8c-0.7,0-1.4,0-2-0.1c-0.9-10-8-18.1-17.4-20.6c0.6-10.2,9.1-18.3,19.4-18.3
	c10.8,0,19.5,8.7,19.5,19.5C144.1,35,135.4,43.8,124.6,43.8z"/>
</svg>
