<svg width="30" height="30" viewBox="0 0 30 30" fill="none" xmlns="http://www.w3.org/2000/svg">
<path d="M25.7812 3.28125H4.21875C3.7002 3.28125 3.28125 3.7002 3.28125 4.21875V25.7812C3.28125 26.2998 3.7002 26.7188 4.21875 26.7188H25.7812C26.2998 26.7188 26.7188 26.2998 26.7188 25.7812V4.21875C26.7188 3.7002 26.2998 3.28125 25.7812 3.28125ZM23.0742 10.1221H21.2021C19.7344 10.1221 19.4502 10.8193 19.4502 11.8447V14.1035H22.9541L22.4971 17.6396H19.4502V26.7188H15.7969V17.6426H12.7412V14.1035H15.7969V11.4961C15.7969 8.46973 17.6455 6.82031 20.3467 6.82031C21.6416 6.82031 22.752 6.91699 23.0771 6.96094V10.1221H23.0742Z" fill="white"/>
</svg>
