<svg width="30" height="30" viewBox="0 0 30 30" fill="none" xmlns="http://www.w3.org/2000/svg">
<path fill-rule="evenodd" clip-rule="evenodd" d="M14.8012 2C11.3249 2 10.8886 2.0152 9.52328 2.07733C8.1606 2.13973 7.23045 2.35547 6.41658 2.67201C5.5747 2.99894 4.86056 3.43628 4.14909 4.14802C3.43708 4.8595 2.99974 5.57364 2.67174 6.41525C2.3544 7.22939 2.1384 8.1598 2.07707 9.52194C2.016 10.8873 2 11.3238 2 14.8001C2 18.2764 2.01547 18.7114 2.07733 20.0767C2.14 21.4394 2.35574 22.3695 2.67201 23.1834C2.99921 24.0253 3.43655 24.7394 4.14829 25.4509C4.8595 26.1629 5.57364 26.6013 6.41498 26.9283C7.22939 27.2448 8.1598 27.4605 9.52221 27.5229C10.8876 27.5851 11.3236 27.6003 14.7996 27.6003C18.2762 27.6003 18.7111 27.5851 20.0765 27.5229C21.4391 27.4605 22.3703 27.2448 23.1848 26.9283C24.0264 26.6013 24.7394 26.1629 25.4506 25.4509C26.1627 24.7394 26.6 24.0253 26.928 23.1837C27.2427 22.3695 27.4587 21.4391 27.5227 20.077C27.584 18.7116 27.6 18.2764 27.6 14.8001C27.6 11.3238 27.584 10.8876 27.5227 9.52221C27.4587 8.15953 27.2427 7.22939 26.928 6.41551C26.6 5.57364 26.1627 4.8595 25.4506 4.14802C24.7386 3.43601 24.0266 2.99868 23.184 2.67201C22.3679 2.35547 21.4373 2.13973 20.0746 2.07733C18.7092 2.0152 18.2746 2 14.7972 2H14.8012ZM14.3743 4.30657H14.3746L14.8012 4.30669C18.2188 4.30669 18.6239 4.31896 19.9735 4.38029C21.2215 4.43736 21.8989 4.64589 22.3501 4.8211C22.9474 5.0531 23.3733 5.33043 23.821 5.77844C24.269 6.22644 24.5464 6.65312 24.7789 7.25045C24.9541 7.70113 25.1629 8.37847 25.2197 9.62648C25.281 10.9758 25.2944 11.3812 25.2944 14.7972C25.2944 18.2132 25.281 18.6186 25.2197 19.9679C25.1626 21.2159 24.9541 21.8933 24.7789 22.3439C24.5469 22.9413 24.269 23.3666 23.821 23.8144C23.373 24.2624 22.9477 24.5397 22.3501 24.7717C21.8994 24.9477 21.2215 25.1557 19.9735 25.2128C18.6242 25.2741 18.2188 25.2874 14.8012 25.2874C11.3833 25.2874 10.9782 25.2741 9.62888 25.2128C8.38087 25.1552 7.70353 24.9466 7.25205 24.7714C6.65472 24.5394 6.22804 24.2621 5.78004 23.8141C5.33203 23.3661 5.0547 22.9405 4.82216 22.3429C4.64696 21.8922 4.43816 21.2149 4.38136 19.9669C4.32002 18.6175 4.30776 18.2122 4.30776 14.794C4.30776 11.3758 4.32002 10.9726 4.38136 9.62328C4.43843 8.37527 4.64696 7.69793 4.82216 7.24672C5.05417 6.64938 5.33203 6.22271 5.78004 5.77471C6.22804 5.3267 6.65472 5.04937 7.25205 4.81683C7.70326 4.64083 8.38087 4.43283 9.62888 4.37549C10.8097 4.32216 11.2673 4.30616 13.6529 4.30349V4.30669C13.8758 4.30634 14.1156 4.30645 14.3743 4.30657ZM20.0978 7.96753C20.0978 7.11925 20.7858 6.43205 21.6338 6.43205V6.43151C22.4818 6.43151 23.1698 7.11952 23.1698 7.96753C23.1698 8.81554 22.4818 9.50354 21.6338 9.50354C20.7858 9.50354 20.0978 8.81554 20.0978 7.96753ZM14.8009 8.22673C11.1709 8.22687 8.2278 11.17 8.2278 14.8001C8.2278 18.4303 11.171 21.3722 14.8012 21.3722C18.4314 21.3722 21.3735 18.4303 21.3735 14.8001C21.3735 11.17 18.4311 8.22673 14.8009 8.22673ZM19.0679 14.8001C19.0679 12.4436 17.1575 10.5334 14.8012 10.5334C12.4446 10.5334 10.5345 12.4436 10.5345 14.8001C10.5345 17.1564 12.4446 19.0668 14.8012 19.0668C17.1575 19.0668 19.0679 17.1564 19.0679 14.8001Z" fill="white"/>
</svg>
