<svg width="30" height="30" viewBox="0 0 30 30" fill="none" xmlns="http://www.w3.org/2000/svg">
<path d="M15.2308 4H15.2297C15.209 4 15.1895 4 15.171 4.00024C15.0232 4.0017 14.7803 4.004 14.7584 4.00424C14.2257 4.00424 13.1597 4.07762 12.0146 4.57036C11.3599 4.85191 10.771 5.23259 10.2644 5.70187C9.66032 6.26102 9.16821 6.95042 8.802 7.75121C8.26567 8.92371 8.39299 10.8986 8.49524 12.4857L8.49561 12.4882C8.50656 12.6582 8.51807 12.8357 8.52858 13.0086C8.4499 13.0438 8.32233 13.081 8.13431 13.081C7.83178 13.081 7.47203 12.9867 7.06533 12.8009C6.94566 12.7466 6.80907 12.7191 6.65837 12.7191C6.41624 12.7191 6.16098 12.7886 5.93956 12.9155C5.66098 13.075 5.48098 13.3004 5.43209 13.5503C5.39987 13.7156 5.40143 14.0423 5.77368 14.3736C5.97843 14.556 6.27922 14.7242 6.66745 14.8738C6.76933 14.913 6.89024 14.9503 7.01831 14.9899C7.4627 15.1276 8.1353 15.3357 8.3107 15.7381C8.39958 15.9422 8.36133 16.2107 8.19732 16.5352C8.19302 16.5441 8.18873 16.5527 8.18481 16.5618C8.14383 16.6552 7.76144 17.4996 6.97707 18.3902C6.53136 18.8966 6.04044 19.3199 5.51873 19.6486C4.88196 20.0498 4.19294 20.3121 3.47101 20.4281C3.18752 20.4734 2.98507 20.7197 3.00086 20.9995C3.00572 21.0802 3.02512 21.1606 3.05877 21.2384C3.05902 21.2389 3.05933 21.2393 3.05958 21.2398C3.17421 21.5012 3.43998 21.7232 3.87206 21.9191C4.40005 22.1582 5.18971 22.3593 6.21888 22.5167C6.27088 22.6131 6.32487 22.8554 6.36225 23.0213C6.40137 23.1977 6.44217 23.379 6.50033 23.5716C6.56308 23.7802 6.72585 24.0296 7.14401 24.0296C7.30248 24.0296 7.48472 23.9948 7.69576 23.9549C8.00481 23.8957 8.42744 23.8151 8.95494 23.8151C9.24739 23.8151 9.55048 23.8402 9.85555 23.8896C10.4436 23.9851 10.9506 24.3342 11.5372 24.7385C12.3958 25.3302 13.3676 26 14.8524 26C14.8929 26 14.9335 25.9987 14.9736 25.996C15.0227 25.9982 15.0835 26 15.1477 26C16.633 26 17.6046 25.33 18.4622 24.7388L18.4636 24.7376C19.0503 24.3337 19.5567 23.9851 20.1446 23.8896C20.4495 23.8402 20.7526 23.8151 21.0451 23.8151C21.5491 23.8151 21.9481 23.8777 22.3043 23.9455C22.5368 23.9901 22.7175 24.0115 22.8561 24.0115L22.8697 24.0118H22.8838C23.1896 24.0118 23.4143 23.8481 23.5001 23.5617C23.557 23.3732 23.5977 23.1961 23.6378 23.0168C23.6728 22.8614 23.7286 22.6121 23.7806 22.5147C24.8105 22.357 25.5998 22.1563 26.1279 21.9173C26.559 21.7223 26.8244 21.5005 26.9398 21.2402C26.9743 21.1622 26.9946 21.0813 26.9991 20.9989C27.0153 20.7196 26.8126 20.4728 26.5289 20.4275C23.3204 19.9119 21.875 16.6978 21.8153 16.5613C21.8114 16.5523 21.8071 16.5434 21.8025 16.5347C21.6385 16.2101 21.6006 15.9419 21.6896 15.7375C21.8646 15.3354 22.5368 15.1273 22.9815 14.9897C23.1102 14.9501 23.2316 14.9125 23.3326 14.8736C23.7704 14.705 24.0833 14.5221 24.2898 14.3145C24.5363 14.0669 24.5843 13.8296 24.5814 13.6744C24.5738 13.2988 24.2793 12.9651 23.8109 12.8016C23.6526 12.7379 23.4722 12.7042 23.2885 12.7042C23.1634 12.7042 22.9782 12.7209 22.8028 12.8007C22.4275 12.972 22.0912 13.0656 21.8026 13.0789C21.6491 13.0714 21.5414 13.0389 21.4717 13.0079C21.4805 12.8614 21.4902 12.7109 21.5002 12.554L21.5043 12.4868C21.6072 10.8987 21.7349 8.92225 21.1983 7.7489C20.8306 6.94526 20.3367 6.25411 19.7302 5.69375C19.2216 5.22417 18.6307 4.84354 17.9737 4.56218C16.8302 4.07307 15.7643 4 15.2308 4Z" fill="white"/>
</svg>
