<svg width="30" height="30" viewBox="0 0 30 30" fill="none" xmlns="http://www.w3.org/2000/svg">
<path d="M27.1865 7.45021C26.29 7.83693 25.3145 8.11525 24.3096 8.22365C25.3529 7.60383 26.1341 6.62462 26.5068 5.46974C25.5278 6.05213 24.4553 6.46051 23.3369 6.67677C22.8695 6.17704 22.3041 5.77894 21.6761 5.50726C21.048 5.23558 20.3708 5.09616 19.6865 5.09767C16.918 5.09767 14.6914 7.34181 14.6914 10.0957C14.6914 10.4824 14.7383 10.8692 14.8145 11.2412C10.6689 11.0244 6.97168 9.04396 4.51367 6.01173C4.0658 6.77672 3.83109 7.64774 3.83398 8.53419C3.83398 10.2686 4.71582 11.7979 6.06055 12.6973C5.26808 12.6661 4.49417 12.4482 3.80176 12.0615V12.1231C3.80176 14.5518 5.51855 16.5645 7.80664 17.0274C7.37703 17.139 6.93508 17.196 6.49121 17.1973C6.16602 17.1973 5.8584 17.1651 5.54785 17.1211C6.18066 19.1016 8.02344 20.5401 10.2178 20.5869C8.50098 21.9317 6.35059 22.7227 4.01563 22.7227C3.59668 22.7227 3.20996 22.708 2.80859 22.6611C5.02344 24.082 7.65137 24.9024 10.4814 24.9024C19.6689 24.9024 24.6963 17.291 24.6963 10.6846C24.6963 10.4678 24.6963 10.251 24.6816 10.0342C25.6543 9.32228 26.5068 8.44044 27.1865 7.45021Z" fill="white"/>
</svg>
