<svg width="30" height="30" viewBox="0 0 30 30" fill="none" xmlns="http://www.w3.org/2000/svg">
<path d="M27.4039 8.0677C27.5855 7.45172 27.4039 7 26.5449 7H23.6995C22.9755 7 22.6446 7.39078 22.463 7.81999C22.463 7.81999 21.0162 11.4218 18.9662 13.7573C18.3045 14.4368 18.0021 14.6514 17.6414 14.6514C17.4611 14.6514 17.199 14.4368 17.199 13.8208V8.0677C17.199 7.32852 16.9901 7 16.3867 7H11.9155C11.464 7 11.1915 7.34177 11.1915 7.66765C11.1915 8.36708 12.2166 8.5287 12.3217 10.4998V14.7759C12.3217 15.7125 12.1569 15.8834 11.7936 15.8834C10.8295 15.8834 8.48364 12.2683 7.09141 8.12996C6.82023 7.32587 6.54646 7.00133 5.81986 7.00133H2.97572C2.16219 7.00133 2 7.39211 2 7.82131C2 8.59228 2.96405 12.4074 6.49067 17.4531C8.84175 20.8987 12.1517 22.7665 15.1671 22.7665C16.9745 22.7665 17.1977 22.3519 17.1977 21.6365V19.0322C17.1977 18.2029 17.3703 18.036 17.9425 18.036C18.3628 18.036 19.0869 18.2533 20.7749 19.9131C22.703 21.8816 23.0222 22.7652 24.1056 22.7652H26.9497C27.762 22.7652 28.1681 22.3505 27.9345 21.5319C27.6789 20.7172 26.7577 19.5316 25.5355 18.1287C24.8711 17.3286 23.8785 16.4676 23.5762 16.0371C23.1545 15.482 23.2765 15.2369 23.5762 14.7442C23.5775 14.7455 27.0432 9.76198 27.4039 8.0677Z" fill="white"/>
</svg>
