<svg width="30" height="30" viewBox="0 0 30 30" fill="none" xmlns="http://www.w3.org/2000/svg">
<path d="M12.9394 24.4697C8.63105 24.8911 4.90765 22.9545 4.62815 20.1374C4.34757 17.3257 7.61705 14.6983 11.9298 14.2737C16.2403 13.8491 19.9605 15.7868 20.24 18.6038C20.5206 21.4058 17.2511 24.0451 12.9416 24.4654L12.9394 24.4697ZM11.8041 21.1246C11.3881 21.7884 10.4955 22.0772 9.82271 21.7733C9.15971 21.4726 8.96363 20.7053 9.38288 20.0566C9.79346 19.4153 10.6569 19.1287 11.3253 19.4089C11.9991 19.6923 12.2136 20.4564 11.8041 21.1246ZM13.1799 19.3712C13.0272 19.6266 12.6935 19.7516 12.4335 19.6438C12.1779 19.5468 12.0944 19.2548 12.2418 19.0123C12.3913 18.7677 12.7141 18.6394 12.9698 18.7536C13.2287 18.8506 13.311 19.1416 13.1648 19.4013L13.1799 19.3712ZM13.3706 16.4409C11.3199 15.9096 9.00155 16.9259 8.10888 18.7235C7.20322 20.5598 8.08072 22.5934 10.152 23.2605C12.3003 23.9502 14.8298 22.893 15.7117 20.9122C16.5783 18.98 15.4939 16.9873 13.3706 16.4409ZM21.5638 15.1218C21.189 15.0087 20.9463 14.9279 21.1251 14.4591C21.5313 13.4062 21.5801 12.5149 21.1251 11.8683C20.279 10.6699 17.9672 10.7335 15.3141 11.836C15.3141 11.836 14.4843 12.1927 14.6955 11.5439C15.1028 10.2324 15.0368 9.14716 14.403 8.51672C12.9535 7.07585 9.1283 8.56521 5.85773 11.836C3.41808 14.2823 2 16.872 2 19.1082C2 23.3985 7.52389 26 12.9264 26C20.0071 26 24.7217 21.9037 24.7217 18.6502C24.7217 16.6866 23.0458 15.5745 21.5638 15.1111V15.1218ZM23.6308 9.63428C22.801 8.71178 21.5638 8.35506 20.4242 8.59754C19.9518 8.69453 19.6593 9.14824 19.7568 9.60194C19.8543 10.0546 20.3104 10.3466 20.7665 10.2507C21.3201 10.1376 21.9224 10.2981 22.3286 10.7518C22.736 11.2055 22.8335 11.8047 22.671 12.3393C22.5236 12.7768 22.7674 13.2618 23.2235 13.4083C23.6622 13.5366 24.1519 13.2952 24.2981 12.8566C24.6556 11.7562 24.4281 10.5094 23.5983 9.58578L23.6308 9.63428ZM26.2503 7.26876C24.543 5.37526 22.0199 4.66184 19.6918 5.14787C19.1545 5.25995 18.8122 5.78047 18.927 6.31285C19.0397 6.84738 19.5618 7.18901 20.0992 7.07477C21.7588 6.71806 23.5496 7.23643 24.7531 8.56521C25.9578 9.90801 26.3012 11.7368 25.779 13.3243C25.6003 13.8416 25.8939 14.4095 26.4139 14.5711C26.9328 14.749 27.4874 14.4591 27.6673 13.9396C28.3985 11.6894 27.9284 9.11375 26.2178 7.22026L26.2503 7.26876Z" fill="white"/>
</svg>
