<svg width="30" height="30" viewBox="0 0 30 30" fill="none" xmlns="http://www.w3.org/2000/svg">
<path fill-rule="evenodd" clip-rule="evenodd" d="M25.1579 6.56724C26.2766 6.87936 27.1577 7.79902 27.4567 8.96691C28 11.0836 28 15.5 28 15.5C28 15.5 28 19.9163 27.4567 22.0331C27.1577 23.201 26.2766 24.1206 25.1579 24.4329C23.1305 25 15 25 15 25C15 25 6.86953 25 4.84198 24.4329C3.72324 24.1206 2.84219 23.201 2.54319 22.0331C2 19.9163 2 15.5 2 15.5C2 15.5 2 11.0836 2.54319 8.96691C2.84219 7.79902 3.72324 6.87936 4.84198 6.56724C6.86953 6 15 6 15 6C15 6 23.1305 6 25.1579 6.56724ZM12.5649 11.7827V20.0436L19.0649 15.9133L12.5649 11.7827Z" fill="white"/>
</svg>
