<svg width="87" height="40" viewBox="0 0 87 40" fill="none" xmlns="http://www.w3.org/2000/svg">
<mask id="mask0" mask-type="alpha" maskUnits="userSpaceOnUse" x="0" y="0" width="87" height="40">
<rect width="87" height="40" fill="#C4C4C4"/>
</mask>
<g mask="url(#mask0)">
<mask id="mask1" mask-type="alpha" maskUnits="userSpaceOnUse" x="44" y="12" width="28" height="28">
<path fill-rule="evenodd" clip-rule="evenodd" d="M44.5703 12.5713H71.9516V39.9997H44.5703V12.5713Z" fill="white"/>
</mask>
<g mask="url(#mask1)">
<path fill-rule="evenodd" clip-rule="evenodd" d="M69.6873 26.9896C69.3253 32.9731 64.3557 37.7122 58.2863 37.7122C51.9709 37.7122 46.8595 32.5973 46.8595 26.2845C46.8595 21.2143 50.1573 16.9155 54.7279 15.42C54.8113 14.8637 54.8543 14.2944 54.8543 13.7139C54.8543 13.4757 54.8457 13.2418 54.8345 13.0088C48.9293 14.5395 44.5703 19.9029 44.5703 26.2845C44.5703 33.8571 50.7077 39.9996 58.2863 39.9996C65.4874 39.9996 71.396 34.441 71.9516 27.3766C71.1767 27.3095 70.42 27.1797 69.6873 26.9896ZM58.2868 14.8561C64.0132 14.8561 68.7617 19.0758 69.5864 24.5803C70.3397 24.8245 71.1274 24.9948 71.9426 25.0816C71.3321 18.0706 65.4493 12.5713 58.2868 12.5713C57.8853 12.5713 57.4897 12.5893 57.101 12.622C57.1259 12.9823 57.1414 13.3461 57.1414 13.7141C57.1414 14.12 57.1208 14.5225 57.0898 14.9181C57.4819 14.8768 57.8801 14.8561 58.2868 14.8561Z" fill="#00A651"/>
</g>
<mask id="mask2" mask-type="alpha" maskUnits="userSpaceOnUse" x="14" y="12" width="29" height="28">
<path fill-rule="evenodd" clip-rule="evenodd" d="M14.8564 12.5718H42.2403V39.9999H14.8564V12.5718Z" fill="white"/>
</mask>
<g mask="url(#mask2)">
<path fill-rule="evenodd" clip-rule="evenodd" d="M42.2403 27.3762C41.6847 34.4415 35.7787 40.0001 28.5724 40.0001C20.9955 40.0001 14.8564 33.8576 14.8564 26.2841C14.8564 19.9034 19.2163 14.5399 25.1224 13.0093C25.1327 13.2414 25.1404 13.4762 25.1404 13.7135C25.1404 14.2949 25.0966 14.8641 25.014 15.4205C20.4443 16.9159 17.1473 21.2148 17.1473 26.2841C17.1473 32.5969 22.2571 37.7127 28.5724 37.7127C34.6444 37.7127 39.614 32.9735 39.9761 26.9901C40.7061 27.1793 41.4663 27.31 42.2403 27.3762ZM27.3759 14.9185C27.4086 14.523 27.4293 14.1205 27.4293 13.7138C27.4293 13.3466 27.4138 12.9828 27.3888 12.6225C27.7775 12.5898 28.1731 12.5718 28.573 12.5718C35.7363 12.5718 41.626 18.0711 42.2365 25.0821C41.4161 24.9944 40.6259 24.825 39.8743 24.5808C39.0496 19.0763 34.3002 14.8558 28.573 14.8558C28.1679 14.8558 27.7681 14.8773 27.3759 14.9185Z" fill="#FCB131"/>
</g>
<mask id="mask3" mask-type="alpha" maskUnits="userSpaceOnUse" x="59" y="0" width="28" height="28">
<path fill-rule="evenodd" clip-rule="evenodd" d="M59.4648 0H86.853V27.4284H59.4648V0Z" fill="white"/>
</mask>
<g mask="url(#mask3)">
<path fill-rule="evenodd" clip-rule="evenodd" d="M86.853 13.7143C86.853 21.2886 80.7147 27.4285 73.1387 27.4285C65.9677 27.4285 60.0866 21.9301 59.476 14.9182C60.2964 15.0033 61.0815 15.1753 61.8374 15.4204C62.6595 20.9231 67.4046 25.1437 73.1387 25.1437C79.4489 25.1437 84.5655 20.0253 84.5655 13.7143C84.5655 7.40405 79.4489 2.28571 73.1387 2.28571C67.0615 2.28571 62.0954 7.02568 61.7334 13.01C60.9981 12.8208 60.2448 12.6901 59.4648 12.6221C60.0264 5.55777 65.9316 0 73.1387 0C80.7147 0 86.853 6.14081 86.853 13.7143Z" fill="#EE334E"/>
</g>
<mask id="mask4" mask-type="alpha" maskUnits="userSpaceOnUse" x="29" y="0" width="29" height="28">
<path fill-rule="evenodd" clip-rule="evenodd" d="M29.7549 0H57.1404V27.4284H29.7549V0Z" fill="white"/>
</mask>
<g mask="url(#mask4)">
<path fill-rule="evenodd" clip-rule="evenodd" d="M43.4239 25.1439C37.6959 25.1439 32.9465 20.9233 32.1226 15.4206C31.3685 15.1755 30.5825 15.0035 29.7621 14.9184C30.3735 21.9303 36.2546 27.4288 43.4239 27.4288C43.8264 27.4288 44.2228 27.4124 44.6132 27.3772C44.5866 27.0194 44.5702 26.654 44.5702 26.285C44.5702 25.88 44.5909 25.4776 44.6244 25.0829C44.2297 25.1233 43.8298 25.1439 43.4239 25.1439ZM43.4236 0C36.2173 0 30.313 5.55777 29.7549 12.6221C30.5314 12.6901 31.283 12.8208 32.0208 13.01C32.3803 7.02568 37.3498 2.28571 43.4236 2.28571C49.7389 2.28571 54.8538 7.40405 54.8538 13.7143C54.8538 18.7836 51.5543 23.0841 46.9829 24.5813C46.9012 25.1351 46.859 25.7052 46.859 26.2848C46.859 26.523 46.8607 26.7586 46.8771 26.99C52.7814 25.4601 57.1404 20.0967 57.1404 13.7143C57.1404 6.14081 51.0022 0 43.4236 0Z" fill="black"/>
</g>
<mask id="mask5" mask-type="alpha" maskUnits="userSpaceOnUse" x="0" y="0" width="28" height="28">
<path fill-rule="evenodd" clip-rule="evenodd" d="M0 0H27.4272V27.4284H0V0Z" fill="white"/>
</mask>
<g mask="url(#mask5)">
<path fill-rule="evenodd" clip-rule="evenodd" d="M27.4267 13.7143C27.4267 6.14081 21.2885 0 13.7107 0C6.13983 0 -0.000976562 6.14081 -0.000976562 13.7143C-0.000976562 21.2886 6.13983 27.4285 13.7107 27.4285C14.1123 27.4285 14.5053 27.4122 14.8974 27.3778C14.8708 27.0192 14.8544 26.6537 14.8544 26.2848C14.8544 25.8798 14.8759 25.4773 14.9077 25.0826C14.5139 25.123 14.1157 25.1437 13.7107 25.1437C7.39964 25.1437 2.28302 20.0253 2.28302 13.7143C2.28302 7.40405 7.39964 2.28571 13.7107 2.28571C20.0252 2.28571 25.1384 7.40405 25.1384 13.7143C25.1384 18.7845 21.8388 23.0841 17.2683 24.5813C17.1874 25.1351 17.1453 25.7052 17.1453 26.2848C17.1453 26.523 17.147 26.7586 17.1625 26.99C23.0677 25.4601 27.4267 20.0967 27.4267 13.7143Z" fill="#0081C8"/>
</g>
</g>
</svg>
